<?xml version="1.0" standalone="no"?>
<!DOCTYPE svg PUBLIC "-//W3C//DTD SVG 20010904//EN"
 "http://www.w3.org/TR/2001/REC-SVG-20010904/DTD/svg10.dtd">
<svg version="1.0" xmlns="http://www.w3.org/2000/svg"
 width="1151.000000pt" height="1151.000000pt" viewBox="0 0 1151.000000 1151.000000"
 preserveAspectRatio="xMidYMid meet">
<metadata>
Created by potrace 1.14, written by Peter Selinger 2001-2017
</metadata>
<g transform="translate(0.000000,1151.000000) scale(0.100000,-0.100000)"
fill="#000000" stroke="none">
<path d="M1967 8302 l-1917 -1917 908 -908 c499 -499 912 -907 917 -907 13 0
275 262 275 275 0 6 -345 355 -767 777 l-768 768 733 732 732 733 490 -490
490 -490 170 170 170 170 -490 490 -490 490 733 733 732 732 735 -735 c404
-404 739 -735 745 -735 13 0 275 262 275 275 0 10 -1740 1755 -1750 1755 -3 0
-868 -863 -1923 -1918z"/>
<path d="M5922 7907 c-72 -73 -132 -137 -132 -142 0 -5 370 -381 823 -835 589
-590 844 -852 895 -920 249 -333 400 -696 457 -1100 24 -166 24 -452 1 -615
-74 -520 -309 -983 -682 -1345 -365 -355 -808 -568 -1317 -635 -154 -20 -430
-20 -589 1 -410 53 -828 230 -1162 492 -39 30 -439 422 -889 871 l-817 816
-143 -143 -142 -142 770 -771 c750 -750 897 -891 1050 -1004 316 -234 693
-400 1085 -479 212 -43 302 -51 560 -50 201 0 271 4 389 23 594 91 1107 351
1521 770 444 449 713 1023 771 1645 15 159 6 512 -16 649 -80 503 -264 924
-575 1317 -54 68 -366 389 -894 918 -446 446 -815 812 -821 812 -6 0 -70 -60
-143 -133z"/>
<path d="M0 3750 c0 -219 0 -223 19 -206 40 37 66 115 66 206 0 73 -4 93 -28
141 -55 112 -57 106 -57 -141z"/>
<path d="M10760 2387 c-371 -369 -482 -475 -550 -520 -106 -69 -197 -111 -320
-145 -87 -24 -110 -27 -265 -26 -188 1 -251 13 -401 75 -162 67 -231 125 -629
521 l-371 368 -139 -140 -140 -140 365 -366 c425 -425 503 -490 700 -583 489
-229 1063 -170 1488 152 38 28 282 263 543 520 l472 468 -139 140 c-76 76
-141 139 -144 139 -3 0 -214 -209 -470 -463z"/>
</g>
</svg>
