<svg id="visual" viewBox="0 0 1920 1080" xmlns="http://www.w3.org/2000/svg" xmlns:xlink="http://www.w3.org/1999/xlink" version="1.1">
<path class="wave-1" d="M0 745L45.7 734.5C91.3 724 182.7 703 274.2 694.3C365.7 685.7 457.3 689.3 548.8 709.3C640.3 729.3 731.7 765.7 823 755.7C914.3 745.7 1005.7 689.3 1097 661C1188.3 632.7 1279.7 632.3 1371.2 659.7C1462.7 687 1554.3 742 1645.8 770C1737.3 798 1828.7 799 1874.3 799.5L1920 800L1920 1081L1874.3 1081C1828.7 1081 1737.3 1081 1645.8 1081C1554.3 1081 1462.7 1081 1371.2 1081C1279.7 1081 1188.3 1081 1097 1081C1005.7 1081 914.3 1081 823 1081C731.7 1081 640.3 1081 548.8 1081C457.3 1081 365.7 1081 274.2 1081C182.7 1081 91.3 1081 45.7 1081L0 1081Z" fill="#fa7268"></path>
<path class="wave-2" d="M0 784L45.7 777C91.3 770 182.7 756 274.2 767.2C365.7 778.3 457.3 814.7 548.8 822.3C640.3 830 731.7 809 823 807.2C914.3 805.3 1005.7 822.7 1097 826.7C1188.3 830.7 1279.7 821.3 1371.2 807.2C1462.7 793 1554.3 774 1645.8 761.3C1737.3 748.7 1828.7 742.3 1874.3 739.2L1920 736L1920 1081L1874.3 1081C1828.7 1081 1737.3 1081 1645.8 1081C1554.3 1081 1462.7 1081 1371.2 1081C1279.7 1081 1188.3 1081 1097 1081C1005.7 1081 914.3 1081 823 1081C731.7 1081 640.3 1081 548.8 1081C457.3 1081 365.7 1081 274.2 1081C182.7 1081 91.3 1081 45.7 1081L0 1081Z" fill="#ef5f67"></path>
<path class="wave-3" d="M0 909L45.7 903.7C91.3 898.3 182.7 887.7 274.2 882.2C365.7 876.7 457.3 876.3 548.8 872.2C640.3 868 731.7 860 823 864.2C914.3 868.3 1005.7 884.7 1097 879.3C1188.3 874 1279.7 847 1371.2 837.8C1462.7 828.7 1554.3 837.3 1645.8 845C1737.3 852.7 1828.7 859.3 1874.3 862.7L1920 866L1920 1081L1874.3 1081C1828.7 1081 1737.3 1081 1645.8 1081C1554.3 1081 1462.7 1081 1371.2 1081C1279.7 1081 1188.3 1081 1097 1081C1005.7 1081 914.3 1081 823 1081C731.7 1081 640.3 1081 548.8 1081C457.3 1081 365.7 1081 274.2 1081C182.7 1081 91.3 1081 45.7 1081L0 1081Z" fill="#e34c67"></path><path d="M0 958L45.7 952.2C91.3 946.3 182.7 934.7 274.2 931.8C365.7 929 457.3 935 548.8 931.5C640.3 928 731.7 915 823 914.5C914.3 914 1005.7 926 1097 937.3C1188.3 948.7 1279.7 959.3 1371.2 957.3C1462.7 955.3 1554.3 940.7 1645.8 925.3C1737.3 910 1828.7 894 1874.3 886L1920 878L1920 1081L1874.3 1081C1828.7 1081 1737.3 1081 1645.8 1081C1554.3 1081 1462.7 1081 1371.2 1081C1279.7 1081 1188.3 1081 1097 1081C1005.7 1081 914.3 1081 823 1081C731.7 1081 640.3 1081 548.8 1081C457.3 1081 365.7 1081 274.2 1081C182.7 1081 91.3 1081 45.7 1081L0 1081Z" fill="#d53867"></path><path class="wave-4" id="wave-4" d="M0 992L45.7 992.7C91.3 993.3 182.7 994.7 274.2 997.8C365.7 1001 457.3 1006 548.8 1008.7C640.3 1011.3 731.7 1011.7 823 1006.2C914.3 1000.7 1005.7 989.3 1097 981.7C1188.3 974 1279.7 970 1371.2 965.5C1462.7 961 1554.3 956 1645.8 963.5C1737.3 971 1828.7 991 1874.3 1001L1920 1011L1920 1081L1874.3 1081C1828.7 1081 1737.3 1081 1645.8 1081C1554.3 1081 1462.7 1081 1371.2 1081C1279.7 1081 1188.3 1081 1097 1081C1005.7 1081 914.3 1081 823 1081C731.7 1081 640.3 1081 548.8 1081C457.3 1081 365.7 1081 274.2 1081C182.7 1081 91.3 1081 45.7 1081L0 1081Z" fill="#c62368">
</path></svg>